<svg xmlns="http://www.w3.org/2000/svg" viewBox="0 0 64 64" width="64" height="64">
  <defs>
    <linearGradient id="movie-gradient" x1="0%" y1="0%" x2="100%" y2="100%">
      <stop offset="0%" style="stop-color:#3b82f6;stop-opacity:1" /> <stop offset="100%" style="stop-color:#9333ea;stop-opacity:1" /> </linearGradient>
  </defs>

  <path fill="url(#movie-gradient)" d="M32,2C15.4,2,2,15.4,2,32s13.4,30,30,30s30-13.4,30-30S48.6,2,32,2z M32,54 C19.9,54,10,44.1,10,32S19.9,10,32,10s22,9.9,22,22S44.1,54,32,54z"/>
  
  <circle fill="url(#movie-gradient)" cx="32" cy="16" r="2.5"/>
  <circle fill="url(#movie-gradient)" cx="32" cy="48" r="2.5"/>
  <circle fill="url(#movie-gradient)" cx="16" cy="32" r="2.5"/>
  <circle fill="url(#movie-gradient)" cx="48" cy="32" r="2.5"/>
  <circle fill="url(#movie-gradient)" cx="20.5" cy="20.5" r="2.5"/>
  <circle fill="url(#movie-gradient)" cx="43.5" cy="20.5" r="2.5"/>
  <circle fill="url(#movie-gradient)" cx="20.5" cy="43.5" r="2.5"/>
  <circle fill="url(#movie-gradient)" cx="43.5" cy="43.5" r="2.5"/>

  <path fill="url(#movie-gradient)" d="M28,24l14,8l-14,8V24z"/>
</svg>